/* XPM */
static char *_8735_a37bd207ddadca8fcfaefff64ed30b91bf4ac36fa50b2742739b49348da662ac[] = {
/* columns rows colors chars-per-pixel */
"64 64 114 2 ",
"   c #070707",
".  c #07060B",
"X  c #080609",
"o  c #070C08",
"O  c #0B0C0C",
"+  c #0C100F",
"@  c #0D0D12",
"#  c #100F14",
"$  c #0F1013",
"%  c #131315",
"&  c #151817",
"*  c #191917",
"=  c #151519",
"-  c #18171C",
";  c #16191C",
":  c #1A1A1C",
">  c #1D201F",
",  c #21221D",
"<  c #1D1D22",
"1  c #201F23",
"2  c #1E2122",
"3  c #222325",
"4  c #262825",
"5  c #25252A",
"6  c #29262B",
"7  c #27292C",
"8  c #2A2A2D",
"9  c #262E31",
"0  c #2C2D32",
"q  c #302F34",
"w  c #322F3B",
"e  c #2E3134",
"r  c #2D3139",
"t  c #323335",
"y  c #343837",
"u  c #383A37",
"i  c #34353B",
"p  c #38373C",
"a  c #35393D",
"s  c #3A3A3D",
"d  c #3D413E",
"f  c #363641",
"g  c #383641",
"h  c #363A41",
"j  c #3C3D42",
"k  c #3D3E48",
"l  c #403F45",
"z  c #403F4B",
"x  c #3E4145",
"c  c #3D424B",
"v  c #3F484D",
"b  c #3E4450",
"n  c #424245",
"m  c #484743",
"M  c #474947",
"N  c #494946",
"B  c #44444A",
"V  c #48474D",
"C  c #47494C",
"Z  c #4A4A4D",
"A  c #504F4B",
"S  c #4D504B",
"D  c #52534E",
"F  c #434651",
"G  c #484651",
"H  c #464B54",
"J  c #4C4D53",
"K  c #474E59",
"L  c #4B4E59",
"P  c #504F54",
"I  c #514F5B",
"U  c #475057",
"Y  c #4E5155",
"T  c #475059",
"R  c #4D525B",
"E  c #525255",
"W  c #565857",
"Q  c #595957",
"!  c #54545A",
"~  c #58575B",
"^  c #56595C",
"/  c #5A5A5D",
"(  c #5E605E",
")  c #4E5460",
"_  c #545661",
"`  c #595762",
"'  c #555A63",
"]  c #5B5C63",
"[  c #575D68",
"{  c #5C5D69",
"}  c #605F65",
"|  c #615E6C",
" . c #5E6165",
".. c #5D616A",
"X. c #5E686A",
"o. c #5E6170",
"O. c #616266",
"+. c #63636B",
"@. c #68676D",
"#. c #67696D",
"$. c #68696E",
"%. c #646571",
"&. c #696775",
"*. c #666A72",
"=. c #6A6C74",
"-. c #696F7C",
";. c #667072",
":. c #6C717D",
">. c #727177",
",. c #73727A",
"<. c #757482",
"1. c #787684",
"2. c #7A7A86",
"3. c #7D7E8A",
/* pixels */
"#.=.=.*.=.=.N u n n l e s s x u j l n 6 4 ` ` { ` ` { ] { ~ _ ^ ~ / ] ` ! l 8 ` [ ' { [ [ _ ' F = N J V n B _ [ [ #.+._ [ ) _ *.",
" .] ] /  .( Z y { n n L n n n B n n n 8 j Y O.! W E E W E ! ~ ] J E P J J p j K E Y E Y Y T R J % J G J n c ^ R Y J Y H U Y Y c ",
"O.]  .]  .] E y Z n n B M n x n n B d 0 7 B C W E ! E E P E P P E E J J J h 4 L Y J F K J Y Y K % J V Z j a E J H K C K H H H v ",
"Z ]  .^ O.+.D 0 n c n c B n x n n n n q 1 n n ! E ! P J P P Y P J J V J J u 5 J R J K H T Y y x % J Z Z x 2 F J ! Y H K H H H v ",
"O.O.O./ / / Y u x n J x x B x n i n l 0 3 g C J ! E P Z P J V Z Z J V Z J s 8 Y E J j J / R Y c - J G G k : F H F J J K H H H B ",
"+. .] } ] +.S s a c B n Y h y u l u 8 q t B B B ~ E E E J P V Z Z V J Z J p i J R E J Y J E ! R : g n J s - c H H H _ R H H K k ",
"Q / ] / ] 3.M s a B j n n n Z u p j l 0 p N C l V B B ` J V P V V J V Z Z k 0 J R J L R Y Y ! ..8 m h 6 * * < j p a i 0 h t t j ",
"~ O.]  ./ O.S j B c j B B n a s l s d 8 g J B B B n n ! G Z V V Z V V 5 ! J 7 H E L R Y R E Y k t x *.=.*.@.P +.0 j J n s V J c ",
"m  .] / ] ] M d e x l j n n i 6 u j g t s J Z C B B B J J J J V Z C E J N g 1 K ^ E R R ` Y R s # ! ....#.] +.< V r f i i f i 6 ",
"M +.] +.#./ Z 5 t t s n d x t 8 0 j n 8 8 l J P B J P J Z J V ! J Y C C ~ j , ! E E / R R ! E [ & Z } ' / ~ / } < t i i p i f 6 ",
"8 n Z M x j t d , 5 0 g 6 8 t t 8 6 1 : m : q u s s h y l s s n & * * ; : 6 % _ ! R E R ! E E ! % } E E ' O.] ] V p p i i f p 0 ",
"3 ' _ ] [ _ [ ' ' C 8 t ! P E R 0 J P P ! I 1 s k m n n n n n M <.| +.>.*.O.; L R E L L ! E E R 3 ~ / / +.] / O.B t p p p a t 0 ",
"i :...) [ T _ ....c H 2.P P ! E n J P P P J 0 m p m B y B B t n ] O./ ]  .E - B R R Y U K K R J 0 J J ] ~ { +.{ V q s g f p p 5 ",
"r H H U J L L E Y H k E ! ! L ! j P P Z J Y 0 k i 0 n n C B M J X.]  .^ / E O g h k .._ h j p f : 0 Y n P ] P J 5 B 0 t 0 i i 0 ",
"r K U Y I J P E Y v B L ! ^ L n E P E P P J 3 u 8 n 0 V B M n / ] / ] /  .W % q Z u 5 h Y C C t q ..O.+.| +.@.| %.+.*...` ~ { ^ ",
"t R H R H L E Y P h G l B s n V J P J P N p 3 u B n j B Z B s N ( O./ /  .W < h d s ^ j x n n n # J E E ~ ! ! ! E J J J J J P B ",
"j e H H I T L E J C k n E ] I A P J P E 5 Z : s 4 t n s 8 n 6 m O.O. . .] E 6 f g j x x n B g k & 3.~ E P J P J J V E _ E P J n ",
"h H t H E H L Y J B e J p B G V V J J 8 J k : 6 t > 0 0 0 j s q  .#.O.O.O.' y k m n x j s d j j : B P W P V P V P V J J J J J B ",
"f J K c H J L E e c j 0 E { p B Z Z 8 l k n 4 n r m x s d x u n (  .] O.+./ t B n z G j n s n i : i J J J Z ~ h p N Z J P J J l ",
"a H U v c h K E r B c B 5 1 = l z q V s i % O O u 5 3 < 3 3 : * D Z A D D t X % % 3 1 1 6 , 0 8 : 3 0 q 0 0 0 6 0 0 0 q t y i j ",
"a H Y K H F c a Y c j r ~ ~ / Q E ! =.O.] { ` ! ] , B _ ! ! ^ ` ] ..| &.+.=.` ^ E ! =.x Z E 3 O./ } .. .*.#.=.>.Y #.=.=.@.@.#.,.",
"r %.R R v K H F Y x a B E ~ ! P ! ! ! P Q E ! E j j a E _ E ! ! ~ ~ Q ! ~ Q ,.] ~ J i j } i 5 { +.O. . ... ...$.=.=.,.+.{ ] { V ",
"c i R H T b F U H R j n W ! ~ ! E E W E E E E E q h p P P E ~ ! ~ ! ~ W ~ / ! W E / i r / 3 p &...+.Y { '  .] #.+... . .^ O.] E ",
"x r H Y K F H H K C e p ! ! ~ E E E J J J G L B C i p p { I P P ~ W W J / J P Y ! E j y } =.y +.] ] ^  . .O.+. . . .+.+.O.O.O.Z ",
"2 a v H Y H v H H H i s j W ~ P P ! J V J J Y ! | : x Z C P J J P P J P / Z W ! E ~ h p ] O.* O.O.} O.O.O.O.+.+.O...] +.O.+.O.D ",
"B 5 r B H H K K L H 6 P Z ! J J ,.l J J P E E V ] : x Y E J J J J E Z J Z P E P E ~ x t  .] j J =.} ( / O.] ] ]  .] / O.O./ O.E ",
"h R 2 H Y H Y U Y H t g Z J Z J J J B J E B J E E : n I E E P P J J J E J P E P J E j 6 ] ] O.p O.O.} @. . .] ^ / ^  . .O./ / ] ",
"c H _ 7 Y Y Y J J 5 0 g ' J J J l Z J E J J Y E 8 3 x ! J E W E J J J I Z Z P Q / E j < E } O.y ] O.O./ ] @.#. .~ / / ~ ~ ~ O.J ",
"< c l c t c R B j 9 5 = a i p i h s s i t g Z 8 0 < F t i g s h g h h h a h h g h j R +.p N B Z ! Z N J B ..J Z G Y E M Z C J J ",
"t j 6 6 q 5 p 6 5 : : : q 3 p q 3 $ i : : 4 < : : 8 i t i i s : 8 @ _ o.` [ C s i p j n B N B l i s 2 : ! _ R _ ' [ _ [ ..[ +.5 ",
"t i s 4 k t u 4 8 t t t y t u q 8 < u ! -.-.=.;.=.=.O.*.] *.Z Z # %.[ ' _ _ k - E z ` J I J P ! E C < a -.R ) K -.H R ' a [ ' h ",
"8 J s g 8 j l g x c x ^ B n l l n 0 V ] ] O.{ ] ] / ! ~ ~ ! >.V ; ,.c ^ ' _ n p E J E E E E P E E C 3 x ! ! ^ H ) R R c F K h j ",
"0 g s j s d j s n B i l g V B B n 8 k O. .] / ] / / ~ ~ / / ~ Z < [ _ c ! _ c y E Z E Z E E E Z V Z O s ^ R ~ R H H H K K R h h ",
"y l d s s s l h n k i i j d j H 5 8 E ] O. .] / ] ] } / ] / ] / < [ R o.R [ c a E E E Q ! | B n B ! @ i W R E ! H K T J Y K c h ",
"y u y i t Z p u g d y i n n x n B 6 J V  .] ~ / / ] } ] j ] / ] 6 f ! L h _ v f E Q ! ^ l j B V n Y : h ! ! ! R T K J R T U H a ",
"q j n d s n s ] p u p j k u f B J 6 V 8 J  .] ] / ] O./ ] /  . .; <.! ! R k J h W W B i n B Z g C E 7 a K _ ! ^ J L R T K R F s ",
"3 s l n n n j l n u j s n n h j h 0 i E n J J ! / E ! ! O.] / / 1 T / E ! ' 6 j t n n Z J Z R C V W h f c H _ ! T ! ! J H U ! k ",
"6 n B l n x n s 6 g g m h s p p 8 q i J p ! ] ~ ] ] ! ^ ~ O. .] 1 j E E ^ R c p ~ W I E J E Z E ^ ~ p a j c R ! ! ! R K R ! ! h ",
"6 6 6 8 t t t u t 8 8 7 8 0 0 6 4 8 % Z ] s =.@.@./ 3 ! ! ! ] V ; H %.o.o.o.' > i h E ^ ^ ! / Q / f 0 : H : c R ! ! R R ! / ^ h ",
": 1 q q 8 8 , > : : = p - % 3 < = i % @ s 5 8 p p j s - s s q % t @ : 2 ; @ 3 # B G s 0 x m n J i 6 < < R ' x v R ) E T / R E c ",
"2.#.=.=.=.+.: h ] E P P Z C V J B J { J +.6 # g 8 0 q 8 ~ +.  W ^ d ] / ] +./ + Z Y Z N Z H Z Z Z J : h _ R +.r k R ! E / ! T h ",
"N ] { ] O.Q 8 E J J J Z V C B B J Z G ! P 8 O C j l x < ~ ! E O.{ x O.!  .Y E % s Y J Y E E E J W E a r F ) R c j c I ! ^ ! b j ",
"/ ] { ] E B i Z Y N V V B B P J J J Q Z E 0 . g j B k < t n (  .] >.^ #./  .Y $ l 8 n h t f J ! M h 6 9 i H C B c < K L H K b j ",
"O.O.] 1.^ ] 6 P J Z ! h B P H J G Z Z E E q   l i l l j > >./  .] ' +.O./ +.S % * < 3 0 0 < < 2 & = H % % + @ : 2 ; < 3 2 2 5 4 ",
"^ $.~ W E ] 4 0 q f n C P G Z J I V H P Z s O l n t g 1 E O.+. ./ / E / Z t ^ = 8 p i i < ! +.#.] ] _ ! E | Z A g H t k j h J 3 ",
"Z / ] / ] ] 5 n B B C J Z P Z E P J J n h g   s l B s Z D ] ' !  ./ E ' E ] D $ i B x s 2 B / +./ E ^ Q  .+.=.E s Y J / Y J P w ",
"O./ ]  .] +.0 x n C Z E J P P P Z Z Z J n 0 % l s s j l D W / / O.X.^ E J ! M : p t B k 0 m { / ] ] ! { O.{ O.J * 0 J B Z I E h ",
"m O./ O.( d r &.Z Z Z Z V V P P P P E J J 6 % p g g f J Z O.]  ... .} +.W ` B = p s p t t n ! ^ &.O.] {  .^ n ~ = J s O V V H 0 ",
"B Z  .D D V $ 6 r J ! q w i 0 6 7 0 B C J 8 ; < 5 3 3 1 2 ! Z m ] ^ D E Z n n - 4 J j p 0 m E ! E ] +.}  .] / x % B J B L P E 0 ",
"- @ O 5 t 3 q 3 & - : p n V Z l B @ $ & o % < % - < < < 0 2 O - : * @ 1 & = 3 ~ p g q < 0 V ^ ] ! ^ O.] ..+.O.Y * n P B z g G r ",
"s % / _ j g ] P ] i N $.+.+./ #.N $ F ' ' ..G { ) c K ) ) c % J J V J J i { } E W ^ j Z : n n ] / P P ] ] ] / Z ; 6 | j V V 0 j ",
"y : E E J E J P E j m ] / ~ ] { Y < c G L F K L L L E H H H 7 ! ! E ~ W Z q l J P J P E q N n S E 1 A Z m J D B i 0 g j O i g - ",
"s < ! J E J ! P E x N O.! / _ / J < T C R R ' x k R _ H J H 3 ` Y J E W E P J t ! J J P r : t k s t - 1 i 0 r t t 0 s B - t i t ",
"p s B J J J ! ! J i Z ~ ! ] / ] ] 2 T R *._ K K R L f _ [ H 0 h E ! J Z P W E _ 3 _ E ! r 6 V m J ] % L N H 0 B J J J B 6 h i 5 ",
"i s j k B l P P 0 0 Z O.Z ^ ^ ] W j ) K b F U F K K c J h H 7 a B Z ! ! ! E J R C C l V i 7 Z J m t * J V 6 P E C Z I 0 3 t 8 t ",
"p t C F B C J n E k Z / ! ! ` / Z s H Y Y F J J K H ) f F n < x n n E z n E B j C n Z B i 3 J N L k = j C E J ` B Z ! t < 6 B p ",
"p i B j B l J E E u J ] / ~ / ] N r R Y H J R J K H H H F t < 8 B B V C J C C J J Z J ` a p Z E P P O P V Z n B V J q J = 6 J g ",
"p 0 k B Z P E g j h M J / ] O...S 3 7 < K G K R ) H c h F h F 0 q Z t B Z J i t 0 0 +.n t 0 ~ Y Z B 3 J B B C B J 6 n J % 0 t p ",
"p * i f t i t 0 s V / Z N E y E 3 - : t t r i a h i i 7 < 7 0 % q 0 0 q t 5 7 < 6 3 : : : : 5 8 8 y : p B B J J t j Z l = t i i ",
"5 3 1 5 3 < ! _ L H J J n * g l l g j l x n B $ 5 L y r r 5 5 4 1 % < 6 6 0 6 6 J O.J I &.i t F ~ V * B i g 6 % p q s < ; 6 q 1 ",
"P ] 6 p 6 % ' K T H c j c < J P V C V 0 n B V s 6 B h l n j x 3 3 4 5 g c n < & ] J J E J J { J B J k j l m J 3 ; 0 B n B P Z J ",
"j j k f J % K L J r G J J < n z V B B n B n B u 3 j j s k J j n z l j l j j q 8 s +.V V P J C Z Z C j s ^ ^ O.V C x N =.~ h } } ",
"p j l p B % a h j v H L *.< p C Z Z l B l B i t 1 ! g h p j j k z n h i j x 8 < ^ J E P J J M J Z P s s / ] ` ] ] ] } ] / / ] / ",
"p s p i 3 % H K J J ) K K 5 h Z l l B V n P B 8 1 t l l i n n l s i j p i l 8 % ` E Z P ] N Z J J P y x x ] / ] / ` ~ ~ ] ] ~ ! "
};
