/* XPM */
static char *_775_336f5a870b300adab5492225518315b2ccef7448ffcbaa35539f09bfea30fc25[] = {
/* columns rows colors chars-per-pixel */
"64 64 241 2 ",
"   c #010103",
".  c #01020C",
"X  c #020B0E",
"o  c #010413",
"O  c #020C14",
"+  c #01061B",
"@  c #030C1A",
"#  c #0B0D1B",
"$  c #090D16",
"%  c #041115",
"&  c #0A1215",
"*  c #05111B",
"=  c #0C131D",
"-  c #0D1B19",
";  c #12141D",
":  c #131A1D",
">  c #131916",
",  c #06110C",
"<  c #17231D",
"1  c #0A0E23",
"2  c #080D24",
"3  c #061222",
"4  c #0C1422",
"5  c #0E1924",
"6  c #0D142A",
"7  c #121624",
"8  c #141C24",
"9  c #131629",
"0  c #141B2A",
"q  c #1B1D2C",
"w  c #1A1B27",
"e  c #1B1D32",
"r  c #211F34",
"t  c #152125",
"y  c #1C2323",
"u  c #1C222C",
"i  c #1E282B",
"p  c #1A2628",
"a  c #1D2333",
"s  c #192234",
"d  c #21232C",
"f  c #232B2C",
"g  c #222926",
"h  c #2A3329",
"j  c #222433",
"k  c #232A33",
"l  c #2B2C35",
"z  c #23263B",
"x  c #252B3B",
"c  c #2C2E3B",
"v  c #2B3435",
"b  c #27333C",
"n  c #2B323C",
"m  c #2E393D",
"M  c #2A3835",
"N  c #333C34",
"B  c #32353D",
"V  c #343B3C",
"C  c #393B3D",
"Z  c #313537",
"A  c #3C433E",
"S  c #38453B",
"D  c #44473F",
"F  c #45523F",
"G  c #262C44",
"H  c #2B2D42",
"J  c #202741",
"K  c #322F45",
"L  c #2D3442",
"P  c #2E3942",
"I  c #2E3549",
"U  c #2A384A",
"Y  c #333543",
"T  c #383645",
"R  c #353B45",
"E  c #3A3C45",
"W  c #33354B",
"Q  c #353B4A",
"!  c #3B3D4B",
"~  c #3A374A",
"^  c #353B52",
"/  c #3D3E52",
"(  c #3B3D5A",
")  c #343F5B",
"_  c #2C3C5E",
"`  c #403E4C",
"'  c #403B46",
"]  c #413E53",
"[  c #403E5B",
"{  c #374144",
"}  c #3C4245",
"|  c #3D4A44",
" . c #36414A",
".. c #3D424D",
"X. c #3D4A4B",
"o. c #3E4353",
"O. c #3E4A53",
"+. c #3E445A",
"@. c #3E4B5A",
"#. c #364353",
"$. c #3E5056",
"%. c #3C4363",
"&. c #3D4B62",
"*. c #3D497B",
"=. c #414444",
"-. c #434C45",
";. c #41434D",
":. c #424B4D",
">. c #4A4C4C",
",. c #44524C",
"<. c #49534D",
"1. c #455344",
"2. c #424554",
"3. c #434B54",
"4. c #4A4C54",
"5. c #42455A",
"6. c #444B5B",
"7. c #4A4C5C",
"8. c #484759",
"9. c #445253",
"0. c #4A5454",
"q. c #465B55",
"w. c #4A5C55",
"e. c #45515A",
"r. c #4B525D",
"t. c #4B5C5C",
"y. c #465C5C",
"u. c #515759",
"i. c #504F5F",
"p. c #4C625A",
"a. c #52625B",
"s. c #434662",
"d. c #454B63",
"f. c #4A4D63",
"g. c #4B4E6B",
"h. c #434B69",
"j. c #514E67",
"k. c #455163",
"l. c #4C5264",
"z. c #46526B",
"x. c #4C536B",
"c. c #4D5A66",
"v. c #525364",
"b. c #52546B",
"n. c #555A6B",
"m. c #595D6D",
"M. c #555A66",
"N. c #4B4D76",
"B. c #4D5373",
"V. c #4B5578",
"C. c #525473",
"Z. c #545C73",
"A. c #5A5C73",
"S. c #53557C",
"D. c #555B7C",
"F. c #5B5D7A",
"G. c #58567B",
"H. c #625E7F",
"J. c #546263",
"K. c #57646C",
"L. c #5D6172",
"P. c #5C637C",
"I. c #546076",
"U. c #63646F",
"Y. c #656474",
"T. c #63647B",
"R. c #636A7B",
"E. c #6B6C7C",
"W. c #656975",
"Q. c #67757E",
"!. c #565C82",
"~. c #5A5D86",
"^. c #5F5F91",
"/. c #5C6383",
"(. c #5C628B",
"). c #596585",
"_. c #5A6596",
"`. c #646B8C",
"'. c #666986",
"]. c #6C7389",
"[. c #75758B",
"{. c #717282",
"}. c #666C93",
"|. c #6B6C93",
" X c #6B7492",
".X c #6C7698",
"XX c #737894",
"oX c #767999",
"OX c #706E86",
"+X c #676DA4",
"@X c #6A76A4",
"#X c #797DA3",
"$X c #747AA4",
"%X c #727CB9",
"&X c #5F72AA",
"*X c #827E99",
"=X c #7C8298",
"-X c #75828B",
";X c #7B84A6",
":X c #7E84B1",
">X c #868A9B",
",X c #89969E",
"<X c #8284AB",
"1X c #8789A6",
"2X c #928EA5",
"3X c #9597A9",
"4X c #898BB3",
"5X c #858AB6",
"6X c #8B95BA",
"7X c #979ABA",
"8X c #8A90AA",
"9X c #99A1B6",
"0X c #A2A6BF",
"qX c #8C92C8",
"wX c #979AC5",
"eX c #8C95CB",
"rX c #A79FC4",
"tX c #9CA2C8",
"yX c #9FA2D3",
"uX c #95A3D2",
"iX c #A6A7C7",
"pX c #A8ABDA",
"aX c #AFB3DA",
"sX c #ABAEEA",
"dX c #AEB2EA",
"fX c #B6B9E7",
"gX c #B9BAF6",
"hX c #AFB3FA",
"jX c #BCC3F5",
"kX c #BCC4FB",
"lX c #BFC4EE",
"zX c #C2CAFC",
"xX c #C6C9FC",
"cX c #CAD2FC",
"vX c #D6D8FD",
"bX c #CECAF3",
"nX c #E4DEFF",
"mX c #DFE0FC",
"MX c #E5E9FE",
"NX c #FEFEFE",
"BX c #F8F1FF",
/* pixels */
"V @ 6 6.gXcXOX..o ~ oXE.c [.6.m...@ + @ ~ oXcXcXjX7X& @ ' <XNXMXfX5Xl 4 % = . . *   = y t X 4 O o ; .   O . O O O = o j =.W j T ",
"4 8 7Xb ..! c 2.h. X'.5XwXfXkXwX=X= a r.n Y R U R | ! O oXN.C.Z.y.X.V ] 4 o xXnXI.wXwX. fXyX. g a uXqXd.}.@Xs 8 B O 7 r y - y X ",
"O 5.x o.[ 5.o.+.3.8.3.O.6.e.9.o.+.Y = Y.' 2.R ~ ;.! 9 8 A.8.5.! 3.{ ! E 0 ^ z.+.8.).qXb.2.3.X y ^ Z.O. XI a NX) o : #.+XdXMXvX&.",
"I 0 2. .o.Q ;.../ 8.+. ...+.3.! 5.Q - T. .7.t.0.| P 5 p W.Y 2.! E R ` E a ;X7.Z.l.!.x o b.0.o g @ D.N.N.5. .8.(.o k dX$X_.!.$Xh.",
"I yX .Y.Y `  .Q ^ :./ ^ Q d.x.d.d.E 2., 6.l.4.l.P. .o O OXE  .Q ;.~ C o.p qXl.6.P.5.v.w OX! O <   R h. .b.j.f.C.@ k @X(.Q V.;.l.",
"O pXx.5.j 2.Y ..~ / 8.7...m x.6.W c 3.= * + 0 }.F.{.8.+ OX/ :.2.u.#.8.3.9 <X#XD.E 8.! 3.j ! # h . o.D.;.2.e.6.b.= z x.P.5.D.5.~ ",
"; 4 !.E 2.3...Q T Y R 2.Q .. .2.! u 2.  i. .-.4.E =.8.o >Xb.5.2.2.o.5.6.6 ;X`.3. .! ~ / = 2.8 B e x.Q ! ;.~.5.! O S.P.+.5.+.r.o.",
"q 5 O g.+.5.5.;.o.....~ R ! ;.o.R T 2.o [.l.9.0.r.;.x.o ,Xp 0.3.<.0.8.5.6 zX( R W ! o.~ g 7 5 : E x 2.3.o.d.~ { > I.x 5.;.;.....",
"  R 8 C.O.$.l.e.d.3.+.7...R o.! B ;.u o T ;.{ Y R  .c - % # w h V x 5 8 9 <X5.5.3.E Z.c.-.: o @ j s.5.3.~ ! 7.d y m. X8.n 2. .~ ",
"@ # /.8 9.3.f.B.d.o.5.K.f.2.E ..c 3.B O O gXpXI zX<XT O >XzXkXkXkX%.I s 3 3.v.e.u.H ;.!.-.; * o K.Q R E ! # B  .k r.XXk  .6.i.5.",
"3 %.1 $X| e.3.b.2.n.2.5.;.x.5. . .1.L.t 7X2.3.R R ;.w.= h #.e.'.G.k.@.W + i r.3.e.W ;.r.6 ( l ; OXQ ! ..u 1.:.f d P.~ c 2.m N ] ",
"@ eXy ).3.5.O.d.6.$X5.+.! / x.! 5XD [.> A.OX@.r.2.3.:.X L.6.o.4.4.O.5.d.u 8 b c.0.p.r.t O Y ` y m #.=.y w = y @ j A.0  .[ 8 1.o.",
"8 >.1 g./ 8.l.f. .8.Y 2.` ~ ;.~ T E ! =...Q 2.8.@.3.! . W.Q 2.f.Q A.2.z x 8 O 7 a x 8 7 @ Y E O q c L O o 9 = O . ..o.5.> Z >.2.",
"V } 3 n.3.3.z.3.5.3.! [ 5.5.5.6.` | 3 f ! ! / ! Q 2.l o S R '.J  XQ 2. .x ] 4 0 O # 7 aX2.o ~ . = @ hXmXjX Xc = 5 | >.,.>.P : 7 ",
"6 w.2 n.! a  X@.o.....5.!  .2.x.x.} - a #.f.Q L 5.;.~ * h L I.;X8.;.o.R q $XfXR 0 1 v.Q T :.4 o <.!.c } ..! ;.= = * = t V 0.4.@ ",
"f d Y F.+.<Xo.5.8...{ ;.f.!  .x.2.R . . /.8.o.5.2.L { : ! I Q Q o.#.+./ o r.E ..4 w yXE B :.7.o A n V 1X{ Z 2.= ; ! $X@XU F.R = ",
"v =.k 8 8.5Xr.Z.V.k.O.~ ..~ E 5.2.Q , O wX4. .5. .L V = 8Xf.E L c.o.E O.a L ! E b 9 }. .3.:.` 4 a X.0.9.2.~ 0 # o 5 Q ! R I { o ",
"A -.u -.C ).}.`.$X! o. . ...E 5.;.:.> @ <XX.K..XS ! V = p ~ ! W 2.Q ! O.r.Y +.E 2.9 :.4 8 u.B 8 8 0 8 8 X - k 4 @ % o @ 3 4 7 8 ",
"F } l.2.;.o. ...! ! ..2.2.[ 5.;.3.! x * t 3...o.o.~ V 0 } / ;.~ E ! ..:.v./ ! f.! u k n.2XB Q 3 = f   xXcX2.5.5.oXsX].aXvXiXE.% ",
"k >.<.=.t.<.:.3...5.3.! 5.5...4.O.o.P 6.t qXX.-.;.E j k E | :.:.=.:.9.:.v -.:...Y O y 6.s 8.Q j 1 [.cXf.$.3.3.x.e.v.:.0.9.e.s # ",
"3 8 k l.3.3.w.1.:.9.9.9.-.:.X.3.0.m & ^ b j = 7 q + O j R p.q.t.:.m n i x s.X.6.@.& J.L { y E i = aXl.k.6.6.] ] ..E z.9.2.Q o.T ",
"+ 0 S S = = O , 4 @ @ $ = $ O O O   , X l y = E X.  % % . . Q 6XjXMXvXaXT.l.L M 4 O o G 9 4 = *   fXl.3.7.2.^ Q ~ o.r.e.;.{ ! z ",
"* > N tXMXzX7X$X`.L.M.'.-X8 4 x qX4Xr.1XB { 3.Y R c c 3 c a W D.! Y 8.+.8.! I Q 3.Q h.i.R L i.5.= I v.R f.5.d.R #.kX^ ~ E b...Y ",
"rX'.L R 8.@.@.{ 2.R 2.2.5.& 7 *X:.r.E 8. .+.3.! o...~ o M...O.! #Xc Q ;.8.2...c 4 w '.T 8 u r d o f.l.j 5.W ..o.r.! / ..! 8.L c ",
"d.c 9.C B T | =. .6.5...' q 9 9 T E ` A | Z { E O. .! o @ k f s e 0 a e t 9 a 0 u O o q s e u d   Z.:.8.+.6...o.W / 2.R ~  .T j ",
"4 @ j } | X.| ..:.R j ..{ d @ d a k n L C  .} Q L z 4 O X u M.hXdXMXNXNXvXdXwXXXwX4XXXN =.Q.1.4 @  X3...3.5.] 5.I W o.|.8.V Y ..",
"o . O * > c     o . .   R '.7XvXzXwX4XpXfXfXtX7XfX4X..o aX0 R 5.8.3.2.5.5. .;...! 2./ B Y ' D A.$ oXx.[ #.'.! #.O.O.5.8.5.k ~ ~ ",
"* 8 b 7XQ / E T 8 O gXn 6 B Q Q 5.V.U +XD./.R 3.-...R.d 1X=.;.8.5.o.l.5.f.! 2.5.! g.[ r.2.-.h d.% k.b.v.^ m 2.! 3.3.3.4./ n R ;.",
"% 8 ;X8.f.M.8...V a /.2.o.f S ;XiXN.) Y ~.S.2.! 9.O.3.M.8 Y :.E 5.3...6.B.;.R ! 2.] ../ 2.,.=./ . r.+.5.b.5.;.,.} O.f.9.x.R 6.~ ",
"4 @ 4X8.z.x...<.0 6.=X..O zXNXwXW s.V.@.H.( 5...+.X.:.v.u ..9.O...6.:.+.f.! 3.o.3.3.0.y.0.V o p ! '.a.c.O.]  .X.O.M.4.6.b.4.x.t ",
"j f 8Xx.z.x.l.:.O F.v.P.dX&.K.Z.g.+./.! 8.%...:.X.>.6.R . u 0.:.,.,.r.:.R ! :.X.c.w.y O o ; g d 7 o O 0.t.y.e.9.r.r.3.l.3.9.! X ",
"6.k c z.! R Q | 8 B 7.o.! l.N.h.o./ z.) %.B.7.;.3.:.! o.8 # d j  ...R :.r.3.t o %.jXpXv.! 1.c j v.@ X 0     - ! 2.I.OX3.6 Y  Xx.",
"k y R n...( ~ ,.u O M.;.Q 3.l.4.0.o.5.2.2.P.o.9...X.! T @ y ;XcXaX;XOX7XA.= E.k R v.+.3.+.2.5.3.E o dX7X+.V U k k 0 d c Y V ! 2.",
"K = ! A.! g.4Xy =.. A.! Q s.#.3.X.2.3.o.] 6.^ X.X.;.T ` * g ;.} 2.2./ 5.6.. m.3.:.2.3.>.3.2...o.3.X H ( 2.5...5.5. .T B Q 3.2...",
"B 8 '.o.+.R ! <.f . G.{ ! ..f.0.e.2. .8.x 5.2.o.3.3.~ E u @ . >.! } ;.Y ;.@ -.,.,.t ~ 0.p.w.J.:.. yXG./ D. XP.dXx./ ! R o.9.! ~ ",
"T d V 2.5.3.5.:.# O !.;...! c.X.f.oX..O.C.5.~ 2.q E } ~ E B   .   * # X o     . % o + X 8 - i l 0.A.~ 2.x.Y P ! ~ :.Q :.} :.~ ` ",
"T d N S | =.V :.5 % b.W 2.:XM * o z @ Y 5.2...2.~ -.-.! ; b.c G 2.{.; jX1X8.P.T.F.x.v.m.f.<X  = H D...! !  .E Q ! W ~ >.S  ...` ",
"b 0 8.! ~ ! Y y ;.- u * 4 / *.NXx.o.Q M.o.5.x.E o.:.<.R   v.Q { 2.;.1Xc T ] E 9...9.;.C 4.:.T.= 8 8.Q E 8.C.Q o.`.E '.1.,.Y ..~ ",
"T x T.,.q.a.p.9.E @ o.'.3X .V 3.3.O.l.5.5.n.;.o.{ X.-.Q o M.o.3.5.  V w.O. .O.....o.2.o.O.! R k X E ! r.u :.K.1. .5.2. .-.m ;.o.",
"Y n 0 | 9.a.X.d O o !.Y o.:.3.6.5.2.+.o.l.x.3.;.9.3.E Y   r.~ 5.g iXR ~ ;.R M.f./ ! ....X.=.;.;.. B v.! =.O.! 2.5.3.! ! ;...~ E ",
"..l ; a oX7X<X=Xa   D.Q ! :.Q m.K g.O.3.+.d.Q w R 3.` M.X z   = gX~ ' ! ..3.Q Q ( g.5.+.yX:.` T   E ! ` ! ! / ..! +.E ! | o.! +.",
"..4 R M 5.X.5./ ! # (...! T 1 8 1 4 ! m.D.2.:X>.I 4.,.o 2Xn.o >X=.2.Q 3.v...5.o.5.o.4.3.3.:...Z + R.:.4.X.3.:.3...o.! ] ! >.>.5.",
"O % qX3.;. ...P.^ ! 0 J.w.S a i o.D.M.>.0.,.w.t.t.,.0.o Q Y O X.3...;.5.6.5.5.+.o. .6.5...X.:.< o 7 M.M.L.K.D.K.7.7.B.8.d.8.I o ",
"7.$ oX3.+.8.Q Q R ..o & -.,.S M < = . O > O - & . t E.  . l M D r.R +.3.5.o.M.5.+.o.3.5.:.;.-.V o = i.iXfXvXbX8X1XOX.XOXU.E.e.d.",
" .8 #X! x.f.e.v.~ ;.X o o j 8.U.j.l.l.+.b 0 q L L L T Y Y -.oX~.C :.2.&.5.+.2.o.O.@...`.d./ | l o 2.Q E } 7Xz.;. .+.3.O.,.o. .! ",
"2.>  X3./ 7.b.6.~ ;.0 6.Q Q R Q R ~  .R Q j ;.Y ~ ;.! I [ y >.l.I.] 7.o...3.l.2.s.3.+.o.c D.! m . f.+.+.7.~ ..9.2.5.5.o.e.Y 2.! ",
";.= y a f.n.#.c E c 8 W ~ ;./ Y Q 6.7.o. .z v.6./ Q W p ` f i M.!.;.+.+.3.o.+.H.+.O.;.5.+.C.../ O A.+.2.! O.3.9.2.6.2...o.Q / E ",
"o.O @ ..o.E x T ..= '...! R ..` Q ;.~ Q P Y  .! E ! { ;.;.f a f.dX2.2.8.[ c hX+.+.+.Q 7X:.B./ ..g L.@.5.6.Q +.:.2.n ! 6.] / :.2.",
"2.O 7.e.0.:.;.! >.; h.j :.} | X.| :.$.p.q.,.#.Q ,.<.:.X.-.Z t f.fX^ 5...o.2.7.N.C.o.v.+.5.2.3. .g v.2.[ 3.3.r.$.f.f.e. .9.2.6.2.",
"R = = f.0.a.w.,.:.e @ 0 E A -.9.S m N h < O O o k p g f 5 u p L jX(.n.~.5.R H h.F.V +.! 8.5.! W X XX..:.7.b.d.f.5.7.e.6.3.o.+.f.",
"O + w 7X;X7X1X,X-.6 9 B.3.+.~.I.}.(.sX%X&XuXdX| X.m.-.o.d ; O `.^. X5X@ vX5.2...d./ d.l.5.@.! P O R 9.9.O.5.6.6.6.e.f.3.6.f.l.x.",
"@ O T.| ` 2.E ~  .o tX_.NXNXNXzXvX:Xk._ b.5.D.s..X9.9.@.2.* @ 8.;X  uX) o...@.+.c.f.x.5.2.3.o.; % o + D w.J.t.4.| ,.| >.<.| d = ",
"8X. d. .! ` ` ..G D.5.e.6..XD.l.7X).'.Y f.6.s.d...M.3.x.Q O # X P.W BX5.Q 5.5.! f.x.C.+.~ 7.x @ = 8 d : d t : & @ O q U.2XiXiXiX",
"~ 8 r.! ~ ` 8.4 % D.3.5.5. .r.R 2.s.).#.! } Z.Z.! } 2.! L i o ,.>.d.4.x.v.( x.x.h.7.j.b.5.n E 0 + Q Z.=.x d Q >.g @ 2.T ..o.O.z.",
"~ . O j  .z 4 j O d. .5.5.o.6.`.5.#.B.! 8.! o.~ +.x.8.` y : < :.! 2.@.+.B.d.l.v.B.l.x.x.! / 2.h o ;.] ` V C r.! V 4 Y.V V.6.H f.",
"4.8 ! l.Q 5.! x = m.5.3.5.5.! ..o.! 2. .l.R ! E n.8./  .j 8 v.:.f.( ;.3.r.......P.R ~ ..2.;.! E . L.E  .;.2.L.2.=.O '.;.' 4XXX..",
"8.% @X  8.f.5.3.o 8./ o.d.5.3./ ! ! ..E ..o.Q ^ ~ o.-.T l = m.n.f.o.;...2.o.5.3.L B ! W R #.:.| o Y.! 3.] ( !  .S X T x S.2. .;.",
"3.. f U.@.3.6.8.7 h.j.`...:.3...o...E [ 5.3.5.o. . .:.+.R X M.} ^ { !  ...Q C.Q s.x.l.R pXo.:.D o P.C n.{ 3.! 2.1.. M.Y T f.5.8.",
"O @ :.'./ Q o.;.f D.2.5.d.} O.8.!  .! f.7X! ! o.5.<.{ f.h.- Q O.! 3. .).&.@XwX.Xl.l.l.x.B =.O 8 O v.V s.o... X} F . [.' R ..2.5.",
"3.. *X0.m.b >XL n Y.T.!.5.2.X.3.! ~ 2...2.C.Z.M.1.;.4.l.8.= x.:.4.D u.M.<XW +.^.] 6.@Xe.1.: C @ O g.E $X+.! 6X1.0.o oX' R ....2.",
"R w [.Q | ..! E H =X2.+.I.5.:.3.5.K.P.R.| } ..! 5.B.l.B.+ o Z.:.-.} O.3.@.:.3.3.O.+.o.l.;.2.E % o 8.Q <X} ..Q.,.1.@ OXQ ..X.O.3.",
"Y * 1XX.v.T S 1.* / ;.L R ^ 7.:. .2.+.+.s.>.7.l.r.b.P.l O O W.3.| V.D.X.@.5.3.2.4.2.5.3.5.f.n f . o.:.L.+.X.>.,.{ = W.} e.r.3./ ",
"~ Y =X6.5.'.8.1X+  .{ ,.:.q.6.3.k.4.e.4.:.3.J.y.y.M.n f = + f ;.3.3.G.).$X'.M. .E 5.v. .n V n Z & v w.P L N c j L w E.:.:.,.X.Y ",
"` ] @ ; k ! B d % O * = < < y - : 8 * . & % = w g : w X 1 ~ o O v n a m !  .l Y ~  .R n c 9 d & $ <X1.,.w.0.t.{ ; O . Q 3.0.t.,."
};
