/* XPM */
static char *_530103259580[] = {
/* columns rows colors chars-per-pixel */
"64 64 57 1 ",
"  c #2B2525",
". c #2B2625",
"X c #2B2626",
"o c #2C2625",
"O c #2D2827",
"+ c #2E2927",
"@ c #2F2A29",
"# c #302B2A",
"$ c #312B2B",
"% c #332D29",
"& c #332D2A",
"* c #352D2A",
"= c #352E2B",
"- c #352F2B",
"; c #36302D",
": c #37302D",
"> c #37312D",
", c #39322E",
"< c #3E3833",
"1 c #3F3A35",
"2 c #403935",
"3 c #413A35",
"4 c #403B36",
"5 c #413B37",
"6 c #423C36",
"7 c #423C37",
"8 c #433E39",
"9 c #443E39",
"0 c #45403C",
"q c #46403C",
"w c #46413D",
"e c #47423E",
"r c #47433E",
"t c #48433F",
"y c #48443E",
"u c #48443F",
"i c #494440",
"p c #4A4640",
"a c #4A4641",
"s c #4B4642",
"d c #4C4742",
"f c #4E4A46",
"g c #4E4B47",
"h c #4F4B47",
"j c #514C48",
"k c #514E48",
"l c #514E49",
"z c #524E49",
"x c #514E4A",
"c c #59554E",
"v c #5A5750",
"b c #5B5751",
"n c #5C5951",
"m c #5D5953",
"M c #5F5B54",
"N c #5F5B55",
"B c #605C55",
/* pixels */
"uii-u3u8371uuuuu7.---23-i22281uuuui-u7u3813uuuuu7 ---66-i23333ir",
"jj7-7jnjijmmmMlu1O-3333-3ynjiMlill3-3jmjijmmBmju7 ;1666-6ymjimji",
"ju7-iBujujilluu73--733y-3iysjiullu7-uMuhujijjuu36;-333y-2iiiluil",
"u73-3ujiuuiuuu7u3-7733i-66is71uuu71%1uzpuiiiiu7u6-3736y:63ii11ui",
"777O-69377737777> 7<ri>@-6333718777 -66633737771; 76uu-o-3777781",
" -  O o--->-;%;. O ;>> @o->,  @ .-  .Oo;-------O OO-,- oo---    ",
"O-3333yy3337;7nnBzi5--rizmmmnnjj.-3777yu3533-1nmnju6--yyjnnmmnfj",
">73ujnnnnju3-Mufiijy3*njujiiiiii-31ujnnnBji3-nujuuzu3-bzujuuiuuu",
";1ujiijjuzu7-njjiyjyi*jijuuyuuuu-3rjiijzuli7-njjuujiu-juzpuuuuui",
";uzujjyiuu36-jpuyyi66-73u6uu6773-yjyjjiiuu17-juruuu76-33r8uu7777",
";u778733u6u6-3zzuyu76*i366776,77-u373333u1u7-3jhuui36-u751733-77",
"%; OO --uu66-uuuuu63-:* o,O   o;-- Oo --uu77-uuuiu33,,>  > @o O-",
"jyy737i-i781-u37377-;.7qj-37733ujuu117i-u737-u77777-;O3uj-63373r",
"yzMkii7 O %@ o-,O -- ,ij3-ujBmmjujMjrr7oO.-O  >>OO--O-yj3-ujnBMj",
"7717731O-711173o -36-.uz7-3iy3777777773O;313317@O-33;Ouj3,7uu737",
"Oo;;OO--3ujmzji@-3u7u uju%;;--OoO %-@ --<ujnjziO-7u7uOdju#---;OO",
"-;#37 73uumluuh;33jqj ju3-3yju ----36.36uunzyyj-33juj ju7%3ijio-",
"663iu-ujzhluuuy;3yuzpOu77-ry37-3333yu;yjzzzquuu-3yujy.u73-yu38-3",
"yru3>>d71617777;6uju7 71- u77i-3yyu7%-u71776777;7uzu6.66> u33i-3",
".%--OO%;;;O...  ...; -@-   >-O@-o---#+;%--OOO.OO OO,.-;; oo-- @-",
"yi6-O-366<uhjii7736.-3731313773uyy3-O;333<uzjuu<117 -3761311311i",
"ji36%3yyzhzujjujju6;33ujmMnjuujjjy55-6yyjzzujjujju3-33uzmBnziijj",
"ij66=yy66uzuiui3777-uzzMuuzujjijij66;uu67ukuuuu7766-ujjMiixijjrj",
"i83-+66667777765677;u71u77u7777ui66:.16167717773766-u77p17p1777i",
"%-    O%>>-  oo*-;-%>%> oOOOo-O--:     ----@ @ ----,--- @  @ - -",
"137iiuu73337o:33<33ri11337; 373u733uuui13133 %77221ir37177- 731u",
"zijnjlujru77*3syjnnnmzujju7-6syjjujmzjrjuu37>7uujnmmnjrjlu1%1uuj",
"zzMjmnMjuju7-5yjBqujmnzjuj3-3yjujhmjnMMjuli7-3ujmyujmnjzul1>1iji",
"pziijjjjui63-yyiizujjjjuuu3-7ujjujiuzzllyu73-uuuijyjjjzuiu7>3ill",
"8135uiiu7736-3iiur6u776y6u3>66yi7777uiip7773-3uuyi7i777u7u7-17uu",
"73733777766> y3673777776766O-3uy37333313373-Ou7377777333777O%7uu",
"%-------- - o  -;;..OO.-;%OO ---%;#>;%>;- -    ---O@ooo---   >-%",
"uur-i1i7583rriru7o---33-u11138iiuuu-u3y3731uuuuu7O;;-33-i33353ii",
"jj7-1jMjrjnmcMju7o-3333-7iMlimzujj6-3jMjujnnnBji7O%6378-3rnjimli",
"jq1;imijrjrjjui77--735i%7uuujuujzu6%uBujujujjii36--333i-3iriluil",
"u77;1ijiiippii1i3-3775i-77uu77uuu77;7ujuuuuuui7u6-6373i-33ii37ir",
"770.-33377773381, 77ii- ;7763771333@;77666667737; 36uu,o%8777188",
"O;.. Oo----->--    ---  .%-- O  @-@o  O-;;--;%;O  o#-,oo -%%    ",
"O-3683ii1337-3BnMjr3--iijnnnmmjj -3666yy3<77;<nnnzu6--yyjmmmmMjz",
"-33qjBnnnju7>mpjruji3=njujiydiiy>73ujnnnBju7-npzuuzu3-bjijiiippp",
"-6ujsqzzuju7;nzzrijri-jijuuuuiyi-3rjurjjuju7>njzuujuu-jujiuuuuuu",
"-ujyjjquui77-jpuiii83-83i1uu3733-rjijjuuuu17>juiuuu77-71i8uu7667",
"-y337377u3u3-3jz9id35-i318537-73-u378333u1u7-3jjuuy37-u683777-66",
"%-  OO--yu77-ysir953--%@ =@o   ---    --uu77-uuuuu33--;O ;O    -",
"juu37<u;u777-u77735--o5ij,53177ujyi133u-u766-u66773-%O3uj:676<3u",
"ujBjuu7OO %   --@ -% -uj3*ijnMMjyjBjii1@OO;OOO-;Oo--O;uj3-yjnnBj",
"7733667O>737133  %38> uj3*3yi7933933717o-66<737.O-33; ij5-3uu777",
" O--..;;8ujnjju -3i1rOpjy-----Oo# >-O --7ujnjjuO-3u3i@iji-----OO",
";-%62o33irmjiul;33jujoju7-3ujuO-:-*66O63iunzuuh;77juj.ju7-6uju+-",
"336uy-yjjjjiiui%3yuju u77-uu73,3233yu-ujzzzuuuu;7uuju.u37-uu33-6",
"yyu7-,u75337717;3uju9 73-.u77i-1ttu6,-u67767767>7uji6.77;Ou66y-6",
"o---+ ->>-o     ...- >-- ..--o -+=>-O >-->.OOOO O O;O%;;   %-oo-",
"yy7-o-3311ujziu1<71.;777<333711rty6*.;3711ujjuu3776.%<711317332y",
"jy77-3uuzzjullulju7;73uzBnnjiilljy76-<uujjjujjuzju6-33uzbmnziyjj",
"uj83-uu37ujuuui8667-uhjMuujujziliz66;uu71uziuuu7717-ujjBiizujjij",
"i33, 37777717331667-u37i66u6177pi62:O17771777773766-u77p77i7833i",
";>OO.. ;;;;..  -;---@--O .O  ;@;--o    ----O+oo-;-;;;;; O    ;.-",
"311iuuu16367.%63113ri33877- 731u633riri37337.,33333uy17131; 77<u",
"jqzmjjujuu<7>3uyzmmmnjijju7-3uujjijnxj9juu71-3urjnnnnjuhji7%3uuj",
"zhMjnnMzuju7-3yjMuuzmmzzuz7-3rjujjBjMmBjuju7-3yjnuujnnjzuj7;7uju",
"izuujjjjii38-yyyujuzjjjyuu7;7ujjujiizzlluu73;uuuujdzjjzuii3-1ujj",
"7177uuuu3533-3yiuu1i737u7u7-73uu7777piri3377%6uudu7u667u7i7-17uu",
"77177777373- y3637717737737.-3uu31357515666;.u7617777773777O-1ii",
"->%;--;%> -O oo,%;OOOOO-;-.. ---->-->->>-.-OOOo-;;O+.OO--;O  >-;"
};
