/* XPM */
static char *_073_888a3aa2427a0529fabc3b648758cfe726b7c854c4baa822005cc090f0ecda32[] = {
/* columns rows colors chars-per-pixel */
"64 64 167 2 ",
"   c #1E231F",
".  c #20221D",
"X  c #1F2420",
"o  c #202521",
"O  c #212620",
"+  c #222721",
"@  c #232522",
"#  c #212622",
"$  c #222723",
"%  c #242623",
"&  c #252724",
"*  c #232824",
"=  c #242925",
"-  c #262825",
";  c #252A24",
":  c #262B25",
">  c #272926",
",  c #252A26",
"<  c #262B27",
"1  c #282A27",
"2  c #272C28",
"3  c #292B28",
"4  c #282D29",
"5  c #2A2C29",
"6  c #292E28",
"7  c #2B2D2A",
"8  c #292E2A",
"9  c #2A2F2B",
"0  c #2C2E2B",
"q  c #2D2F2C",
"w  c #2B302A",
"e  c #2C312B",
"r  c #2B302C",
"t  c #2C312D",
"y  c #2E302D",
"u  c #2D322C",
"i  c #2F312E",
"p  c #2D322E",
"a  c #2E332F",
"s  c #2F342E",
"d  c #30352F",
"f  c #2F3430",
"g  c #313330",
"h  c #303531",
"j  c #323431",
"k  c #313630",
"l  c #323731",
"z  c #303632",
"x  c #313632",
"c  c #313733",
"v  c #323733",
"b  c #343633",
"n  c #333832",
"m  c #343933",
"M  c #323834",
"N  c #333834",
"B  c #333935",
"V  c #323836",
"C  c #333937",
"Z  c #343935",
"A  c #353A34",
"S  c #363B35",
"D  c #343A36",
"F  c #353A36",
"G  c #353B37",
"H  c #363B37",
"J  c #333C37",
"K  c #373C36",
"L  c #353B39",
"P  c #363C38",
"I  c #373C38",
"U  c #373D39",
"Y  c #363C3A",
"T  c #373D3B",
"R  c #393B38",
"E  c #383D39",
"W  c #3A3C39",
"Q  c #393E38",
"!  c #3A3F39",
"~  c #383C3B",
"^  c #383E3A",
"/  c #393E3A",
"(  c #3A3F3B",
")  c #3C3E3B",
"_  c #3A3E3D",
"`  c #3B403A",
"'  c #3C413B",
"]  c #3A403C",
"[  c #3B403C",
"{  c #3B413D",
"}  c #3C413D",
"|  c #3D423C",
" . c #3E433D",
".. c #3F413E",
"X. c #3C423E",
"o. c #3D423E",
"O. c #3D433F",
"+. c #3E433F",
"@. c #3F443E",
"#. c #40423F",
"$. c #40453F",
"%. c #3F4440",
"&. c #414340",
"*. c #404541",
"=. c #414640",
"-. c #424741",
";. c #434542",
":. c #414642",
">. c #424743",
",. c #444943",
"<. c #434844",
"1. c #444945",
"2. c #464B45",
"3. c #454A46",
"4. c #454B47",
"5. c #464B47",
"6. c #474C46",
"7. c #484D47",
"8. c #474C48",
"9. c #484D49",
"0. c #494E4A",
"q. c #4A4F4B",
"w. c #4D4F4C",
"e. c #4B504C",
"r. c #4C514D",
"t. c #4D524E",
"y. c #4E534F",
"u. c #50524F",
"i. c #4F5450",
"p. c #4F5551",
"a. c #505551",
"s. c #515652",
"d. c #525753",
"f. c #535854",
"g. c #545955",
"h. c #555A56",
"j. c #565B57",
"k. c #575C58",
"l. c #595B58",
"z. c #585D59",
"x. c #595E5A",
"c. c #5A5F5B",
"v. c #5A605C",
"b. c #5B605C",
"n. c #5C615D",
"m. c #5D625E",
"M. c #5E635F",
"N. c #5F6460",
"B. c #606561",
"V. c #616662",
"C. c #626763",
"Z. c #636864",
"A. c #646965",
"S. c #656A66",
"D. c #666B67",
"F. c #676C68",
"G. c #686D69",
"H. c #696E6A",
"J. c #6A6F6B",
"K. c #6C716D",
"L. c #6D726E",
"P. c #6E736F",
"I. c #6F7470",
"U. c #717672",
"Y. c #737874",
"T. c #767B77",
"R. c #777C78",
/* pixels */
"k x v b 5 +.Z m x Z / N H v N # h v v %.Z I I F Z I H I } } } o.} [ [ E H 3.' k x x h v x v h x h x Z x x x v x v = x h v h x h ",
"k v f v [ N F l H Z I H N h F , F f h E x N N x v N I / [ } ( ( / [ } E E >.+.d h f p r p 8 9 9 8 9 f x h v x v h r x x h x h h ",
"+.0.e.y.y.5.o.r 4 8 h F I v Z p Z h r i.h.b.z.k./ a E E / %./ / E E / / H H = r.a.g.B.h.4 N N f = E o.5.q.4 $ * , , $ o o 8 4 +.",
"v N N v I H / I.R.H.9 d.n.m.j.z.%.X } } ( } ( [ N.9.( ( E / ( / ( I ( I I Z ( r.q.r.5.8.c.r.x a H I E I I = H R H H H H I H 4 H ",
"v v v Z H I / / I o.t.L.S.b.x.K.e.o E } } / } [ %.<.F ( ( [ H I H I E E H a a 5.5.9.3.3.5.9.c.8 I E [ I I = H F Z F N Z Z Z h H ",
"a F v N F Z ( / [ / 3.o.[ o.o.o.o.X ( ( ( [ ( ( N x t 4 r r y q r 4 , r.K.+.Z >.8.8.0.8.5.<.<., / E ( E I $ F F F F F F F F } H ",
"p x Z N I E E %...t } o.( } } } o., = e.<.# < e.0.e.g.k.h.k.k.l.h.S.*.%.( o.t 5.8.9.q.8.8.1.[ f E E / H E < 8 5 2 = = < < 4 %.Z ",
"g x E / [ } +.;.0 f N o.+.} o.+.o.v G.%.*.:.s.:.k.<.P.n.1.<.<.9.s.3.+.I <.( p 8.0.9.0.0.<.1.o.f E I I I I $ &.#.*.%.< H H v } Z ",
"h E [ *.:.>.<.E a f r } +.} +.o.} 8.+.%.%.1.0.3.,.,.<.<.<.:.1.<.1.<.[ o./ E 8 *.5.3.3.5.<.1.} a I H E I H r } ` } o.a H H F :.H ",
"( } } } :.( h a x p r ( } o.} } 9 o.[ } o.3.%.3.@.6.1.q.1.>.*.*.*.1.= I F H r >.3.8.3.1.3.1.N 4 Z x F v x x ( / E ( p I F F +.Z ",
"< = 2 < = < < < , 2 # = < , , , *.} %.} o.o.*.( =.,.>.1.%./ %.>.1.>.* H F x 8 *.3.r.<.<.3.3.:.= %.5.t.y.t.t.q.8.5.1.7.n n 6 h N ",
"/ :.G.T.Y.F.K.J.D.S.z.c.m.c.e.o H :.%.+.%.N F 5.2.3.H [ F ( / * $ I p [ } = f %.1.3.j.5.1.:.%.o.( +.} [ / ( o.+.o.[ N  .! [ [ E ",
"E F 9.%.o.K.*.*.<.:.*.*.%.%.<.>.# o o o # # , 2 9 E 9.5.0.a.<.[ E E # q.} / f +.:.:.*.:.q.<.*.p :.E [ ( ( o.I o.[ / v ' ' ( E E ",
"Z F >.o.o.+.:.+.%.+.o.} %.+.o.+.( +.} E / [ [ ( } +.} } o.o.+.[ [ F $ / ( [ f o.:.:.:.>.:.:.%.p [ / / ( } [ [ [ [ ` u ` Q A Q / ",
"F H :.o.[ +.} } } } %.%.%.+.+.1.I } +.%.o.[ o.o.[ o.[ +.o.[ } / E H %.I } ( h o.+.*.:.o.@.$.$.r r %.%.} %.[ ( ( |  .O Q s w e k ",
"< 9 >.o.o.[ o.o.o.o.+.%.%.%.%.+.F / / / I E E E I I E I I I E I H H I / / F N +.+.%.o.%.| | Q r [ ( [ o.[ } o.l = o 9 H *./ ( 8 ",
"x x :.+.o.+.+.o.} } +.+.%.*.%.[ . X * = < r v } [ ( / ( [ +.} } #.[ 8 r > $ v ( ( } / / F / I H / [ o.} } 2 r.b.>.%.%.%.+.+.*.} ",
"h x F o.o.E o.[ o.%.o.+.*.%.%.[ X } %.*.3.r.r.r.j.I E / [ ( H / W t.Y.U.@ # h r 9 r h 9 4 2 2 # < [ 4 o $ [ :.+.[ o.o.o.} } } o.",
"x f N o.o.o.+.} } [ +.*.} / +.H   9.i.c.A.+.E T I I / I E I E g.D./ P E # # o.+., H h.x.b.t.<.>.-.o # & - 8.o./ ( / ( / E E E / ",
"h f N ( E H o.o.( } o.o.} [ H 9 s.N.k.F I a P V H I F H 1.H.C.E I ^ P E * 8.H H } *.:.*.:.o.o.+.@.< # > w.9./ E E I E E I E E E ",
"h f < 9 8 9 8 4 8 8 8 4 9 9 9 +.:.I E E I N D L E I v 8.[ E E H H G G I 2 H H Z *.I / / / ( ( ( ! # = * t %.[ [ I I / I I H I I ",
"x.C.C.k.f.s.s.h.k.k.C.K.I.S.h.( E H F F N x F C Z x 8.P G H E I H G G v * Z F h F h v x x v v h x X 8 * , r r r 8 4 o.1.r Z e.h.",
"H [ o.+.} E v.p.^ ^ E I H E 9.= F N v x h 8 N Z N 9.G D B D H I I Z D v * 4 9 4 9 $ * $ $ = r.t.y.t.t.h.x.o./ $ j.*.q.k.s.3.%.o.",
"N / ( ( U P D D D G U P H F H r k x v h f h N F ) H G D B G H W F F N N 2 9.8.F I F F N Z [ / ( ( / [ ( ! ` } t [ %.+.+.%.3.H +.",
"D P ^ L Y T L L J G G U D P I f a x h f h x x v U D N N N Z F H B B M x Z I Z a.F H Z Z H 9 E I N f x x h F I f o.+.%.+.+.3.:.*.",
"N I G G P U Y Y D D P G U U I f 2 f h F h N v r h x v p x v N h x x x = h N p N Z N v H h 8 = 2 < 9 2 2 < 2 2 8 } <.+.+.+.5.+.o.",
"9 4 4 8 8 9 9 8 4 8 8 8 9 p 4 % = < 4 , 8 2 2 < < 2 < 2 4 < < = , 8 # , * $ $ , = , < < X a Z v h a h h x h 9 :.( o.%.+.+.1.} o.",
"d.3.} 1.+.i.# %.d.a.d.d.g.i.f.g.z.n.j.g.r.r.y.t.r.d.p # * s.i.8.e.f.s.y.F Z v N h Z F Z F Z Z Z N x $ 9 2 4 9 q # < < 4 = f r.f.",
"1.1.5.8.5.8.# 1.+.*.o.*.%.r.%.*.*.+.+.%.o.[ +.} } } %.5.F v N Z v v x x x f x f v N Z v F v N N 4 2 9 8 9 9 2 5 , M.z.t.<.<.<.:.",
"%.<.<.3.1.<.$ o.+.o.E H o.} o.+.[ o.} [ o.>.*.} / o.%.Z * x N v v v h v v v v N $ Z N r 8 2 * , r 4 9 e.y.j.Z.y.9.*.<.:.*.>.1.<.",
"} <.1.<.5.<.# [ ^ / E o.<.+.} o.} ( } / ( 3.[ ( { O.o.H * * $ * $ $ , F +.y.E +.y.e.<.5.5.5.1.%.p g.e.:.>.o.} o.[ :.<.<.<.i.+.*.",
"+.( *.<.3.p $ Z G ^ ( E I E E E E E / [ [ o.I [ D D [ x $ j.n.b.o.v v 9.%.+./ } :.>.1.3.1.:.:.*.*.+.<.:.*.o.o.} [ :.<.( +.} o./ ",
"^ o.%.H >.+.# 4 p 9 r N N v Z Z F Z x j 5 0 7 q q q 4 $ # x E F / / E x j.M.+.( +.%.+.+.*.o.+.o.I f >.*.+.( o.o.[ o.[ / ( [ E / ",
"G X.} a o.*.o a.d.i.$ i.0.z.r.9.0.9.e.r.0.+.2 $ <.d.d.} I 8 N I I ( I I H N h E ( } [ [ ( ( ( E I x +.( [ [ } / p / I E E / E E ",
"D D ( I } I $ H E / x H F F Z Z N N N c Z N Z F / E ( I F H o = h N H H N Z x E E / / / / E I E v x N ( E E Z f h 4 H F F H H F ",
"D I Z r 9 < # H E E $ F E H F H N N N B M B N 8 Z F v F Z N # # o 4 x h 4 8 2 E Z F Z N F Z v x p 9 r r p a x v 9 x F F +.H Z F ",
"< * $ t I %.$ I E H N X o , 8 9 0 9 9 t 8 $ 5.*.+.%.5.9.q.r } q.r.3.3.$ * < 9 , , 8 9 2 < , = # o $ 4 9 h I E N a N # , = , 2 x ",
"I [ ( ( E H H H F I E $ f p a h g i a r f h E I ! A E E E x } } } } ( x i.s.j.f.%.f.8.a.+.H 0.F H Z Z F N N Z F E F F f v v x h ",
"I E E E E I I I I H I # 8 9 $ = I ( F < o * 8 h n n k N N 9 Z F H H Z N [ ( I E / H ( H H F H I I I F I F %.I H H F v h x h v x ",
"Z Z I S K H a < < < < + , *   N H Z N N Z F Z / : =.,.0.s.d.r.:.+.<.1.>.F v Z E Z h h F x H H H I I I H H H F I F v 9 f h x h h ",
", a.[ / ( H x.b.y.3.N %.0.h.e.N Z F N N N Z N F [ B G G B D 4.N F 3.<.[ f N F N l n m n ; m s n h F N x r 8 2 2 , , $ , 8 4 9 2 ",
"I I / E E 4 1.5.*.*.( } [ / } H H H Z ( y.d.s.s.x G B G D P D %.N Z N N N ( E E I E E } e.1.<.= f.t.y.i.0.q.= * 2 4 8 4 t r f v ",
"b.V.M.h.<.* <.:.+.p E } [ [ N o.:.>.1.:.+.*.r.0.t D G D D D G F :.N N N h H H *./ / / / E F I x F F Z [ I F 8 g.g.g.g.h.f.h.h.h.",
"Z F L.G.M.f.E r j.( o.:.E I x :.%.%.%.} [ / ^ ^ r D D B B G B Z N } N 9 t Z F v Z Z Z Z Z Z Z x h H ( I Z F f.<.1.1.<.5.>.<.<.>.",
"F Z H H n.:.4 ( [ I ( +.:.H a o.} } o.} ] ] U z H v x [ = * 8 8 9 8 9 8 o Z v x e r 8 r a t 3.9.t.p 1.5.9.( *.%.1.:.:.:.1.>.<.>.",
"N F I H H %.} ( / I E I [ / p [ %.} %.v h Z / h > 9 f [ t.f.M.../ f.( E / E Z F <.f t.<.:.+.o.o.} %.[ / [ E *.( o.%.<.*.+.+.o.o.",
"Z E E I F *.Z I H H F E H 3 y @ = 2 < 2 8 a , 8.u./ } o.o.+.[ ..o.I I / / H I E E 8 I ( / E [ E / H E E I H / [ +.} } [ E +.( I ",
"H I F E I *.v H F Z f 4 9 y 0 7 e.y.:.( ( I * o.( ( E [ [ / E / ( H ( ( ( / I E E Z x F H H H H ( Z H Z H Z E } [ ( } o.[ / I / ",
"Z N H I E +.= 3.5.o.a , # *   o t v Z Z F I v / ( / I _ ~ E ( / / } %.+.a.( ( F Z Z = h v p t r = $ $ , , p x / [ ( [ [ [ H I H ",
"v Z N H H *.v h x v h v x h x h x v E N # X F I Z I I I H H Z p 2 r t r 4 < < = $ +.z.5.<.>.:., E I / E I I < H E E E H H F F v ",
"t 9 9 r r t , x d v x h x f x h f a 9 # x >.a.t.t.r.y.q.r.s.s.d.d.f.s.e.2 +.1.3.3.5.<.1.1.3.+.p H E E / I E * 2 f p r 8 4 2 v Z ",
"F / +.1.8.e.y.s.s.s.f.k.x.9.( M.b.m.j.0.9.8.9.9.9.8.5.3.3.>.%.+.%.*.*.o.+./ <.1.3.1.>.<.<.>.+.x v Z Z Z E E * [ o.( o.* * %.+.>.",
"H I I E E ( ( ( / E ( I I / N %.<.>.8.8.1.0.q.8.9.9.5.1.>.>.*.*.%.%.:.o.%.H >.%.o.o.[ o.[ [ N 4 N Z F F v , I F E I H F 3.H H H ",
"I H H / / / E E / E H E / a < H *.>.<.5.1.<.8.5.9.1.5.1.<.5.*.>.%.%.+.} } 8 f v N p t a x p p *.%.[ H / E 4 Z v Z N N x v N F I ",
"I I I E / E H I H +.N E H h t I <.:.:.%.*.<.5.3.3.>.:.*.+.o.} o.+.[ %.( F s.c.k.d.a.t.5.q.a.q.v Z 0.8.o.1.5.} , < o $ * h N I H ",
"I I I E I I E E E E I E I A A m / %.o.%.*.+.:.*.$.*.:.%.+.+.( m N N / I h >.I ( E / I / E / ( o.+.:.%.+.%.:.:.:.%.*.%.( f F H H ",
"I I I I I H I I v ( E I I E N I x a f a f a p a a t p * = , t Z F x Z x h x / / ( ( / ( ( E ( i.*.%.o.%.*.+.o.o.+.[ } } # H Z F ",
"H E H E I / H } f p 9 p * o r +.%.%.*.*.x %.} } a p 9.g.:.*.:.>.:.} } o.} * / E I ( / / ( / Z %.o.} } } [ ( } [ ( [ I I a h H x ",
"a 9 p a r 9 < * * < = *.[ [ } [ [ [ ( [ } H N [ E >.*.:.:.:.*.:.:.*.%.%./ = I } I I E E I E h 9 Z ( ( ( H ( h , = = # # * * 2 h ",
"8.e.r.t.r < = 1 1 < 2 *.E [ ( ( ( ( / / +.$ / / / *.*.:.>.%.>.*.:.+.*.o.[ p H E E N r 4 4 2 4 N [ t v 1.<./ I ( / , E E / E / / ",
"F Z Z H I , 1 3 3 < 2 a E / [ ( ( [ [ ( o.* = / I :.*.+.%.%.%.+.%.%.*.} v Z E <.>.} / / / ( E I I / ( I E I H I I I E / / E ( I ",
"I F Z F H = 4 8 2 4 9 v / ( I / I Z h h v * = * * *.q.h.+.o.o.+.} [ } o.x H ( E ( E / E / / E E E ( / / H I H H Z h I I F E I H ",
"F Z Z N / E <.>.*.%.} +.<.>.o.X %.Z v F H F F F * / ( / ( ( / ( / / ( ( E E v I I E ( E / / I ( E / E N x x F Z x # F H F F F E ",
"H H I H I H ( [ [ } ( ( / ( ( N I F x 2 v F F H f E ( o.} o.[ I E E I E E o.I I I F / I H H H I / I , o 2 a p h h o E Z x h I x "
};
