/* XPM */
static char *_1519_75ee10d95f9e7c639febd1080b18e48d4e9e1b6e038c397b789c29e923198e7c[] = {
/* columns rows colors chars-per-pixel */
"64 64 238 2 ",
"   c #14181B",
".  c #1A1E21",
"X  c #1B2023",
"o  c #1D2122",
"O  c #1C2124",
"+  c #1D2124",
"@  c #1D2225",
"#  c #1E2225",
"$  c #1E2326",
"%  c #1F2326",
"&  c #1F2427",
"*  c #212526",
"=  c #202427",
"-  c #212727",
";  c #222627",
":  c #202528",
">  c #212528",
",  c #212629",
"<  c #232728",
"1  c #222629",
"2  c #22272A",
"3  c #23272A",
"4  c #242829",
"5  c #25292A",
"6  c #24282B",
"7  c #262A2B",
"8  c #24292C",
"9  c #25292C",
"0  c #252A2D",
"q  c #272B2C",
"w  c #262A2D",
"e  c #262B2E",
"r  c #272B2E",
"t  c #272C2F",
"y  c #282C2D",
"u  c #292D2E",
"i  c #282C2F",
"p  c #2A2E2F",
"a  c #282D30",
"s  c #292D30",
"d  c #282D31",
"f  c #292E31",
"g  c #2B2F30",
"h  c #2A2E31",
"j  c #2A2F32",
"k  c #2B2F32",
"l  c #2D2E32",
"z  c #2E2F33",
"x  c #2A3030",
"c  c #2B3033",
"v  c #2C3031",
"b  c #2D3132",
"n  c #2C3033",
"m  c #2E3233",
"M  c #2C3134",
"N  c #2D3134",
"B  c #2D3035",
"V  c #2F3034",
"C  c #2D3235",
"Z  c #2F3334",
"A  c #2E3235",
"S  c #2E3136",
"D  c #2E3336",
"F  c #2F3336",
"G  c #2F3437",
"H  c #2F3438",
"J  c #303435",
"K  c #313536",
"L  c #303437",
"P  c #303636",
"I  c #313737",
"U  c #323637",
"Y  c #303538",
"T  c #313538",
"R  c #313639",
"E  c #333738",
"W  c #323639",
"Q  c #32373A",
"!  c #33373A",
"~  c #33363B",
"^  c #34373C",
"/  c #323838",
"(  c #333939",
")  c #33383B",
"_  c #343839",
"`  c #35393A",
"'  c #34383B",
"]  c #343A3A",
"[  c #353B3B",
"{  c #363A3B",
"}  c #34393C",
"|  c #35393C",
" . c #35383D",
".. c #34393D",
"X. c #353A3D",
"o. c #373B3C",
"O. c #363A3D",
"+. c #363B3E",
"@. c #373B3E",
"#. c #373A3F",
"$. c #373C3F",
"%. c #383C3D",
"&. c #393D3E",
"*. c #383C3F",
"=. c #393F3F",
"-. c #3A3E3F",
";. c #383D40",
":. c #393D40",
">. c #393E41",
",. c #3B3F40",
"<. c #3A3E41",
"1. c #3A3F42",
"2. c #3B3F42",
"3. c #3A3F43",
"4. c #3B4043",
"5. c #3D4142",
"6. c #3C4043",
"7. c #3B4044",
"8. c #3C4144",
"9. c #3D4144",
"0. c #3D4045",
"q. c #3C4145",
"w. c #3D4245",
"e. c #3F4344",
"r. c #3E4245",
"t. c #3D4246",
"y. c #3E4346",
"u. c #3F4346",
"i. c #3F4247",
"p. c #3E4347",
"a. c #3F4447",
"s. c #3F4448",
"d. c #404447",
"f. c #404348",
"g. c #404548",
"h. c #414548",
"j. c #414449",
"k. c #404549",
"l. c #414649",
"z. c #424649",
"x. c #42454A",
"c. c #41464A",
"v. c #42474A",
"b. c #43474A",
"n. c #43464B",
"m. c #42474B",
"M. c #44474C",
"N. c #424848",
"B. c #434949",
"V. c #43484B",
"C. c #444849",
"Z. c #45494A",
"A. c #44484B",
"S. c #464A4B",
"D. c #43484C",
"F. c #44494C",
"G. c #45494C",
"H. c #45484D",
"J. c #44494D",
"K. c #454A4D",
"L. c #464A4D",
"P. c #46494E",
"I. c #454A4E",
"U. c #464B4E",
"Y. c #474B4E",
"T. c #464B4F",
"R. c #474D4D",
"E. c #474C4F",
"W. c #484C4D",
"Q. c #494D4E",
"!. c #484C4F",
"~. c #484E4E",
"^. c #4A4E4F",
"/. c #474C50",
"(. c #484D50",
"). c #494D50",
"_. c #484D51",
"`. c #494E51",
"'. c #4A4E51",
"]. c #494E52",
"[. c #4A4F52",
"{. c #4B4F52",
"}. c #4B4E53",
"|. c #4A5050",
" X c #4B5053",
".X c #4C5051",
"XX c #4C5053",
"oX c #4B5054",
"OX c #4C5154",
"+X c #4D5154",
"@X c #4C5155",
"#X c #4D5255",
"$X c #4E5255",
"%X c #4D5256",
"&X c #4E5356",
"*X c #4F5356",
"=X c #4E5357",
"-X c #4F5457",
";X c #4F5458",
":X c #505457",
">X c #505558",
",X c #515558",
"<X c #515659",
"1X c #535758",
"2X c #525659",
"3X c #51565A",
"4X c #52575A",
"5X c #53575A",
"6X c #52575B",
"7X c #53585B",
"8X c #54585B",
"9X c #53585C",
"0X c #54595C",
"qX c #55595C",
"wX c #54595D",
"eX c #555A5D",
"rX c #565A5D",
"tX c #565B5E",
"yX c #575B5E",
"uX c #565B5F",
"iX c #575C5F",
"pX c #585C5D",
"aX c #585C5F",
"sX c #585D60",
"dX c #595D60",
"fX c #595E61",
"gX c #5A5E61",
"hX c #5A5F62",
"jX c #5B6063",
"kX c #5C6063",
"lX c #5C6164",
"zX c #5D6164",
"xX c #5D6265",
"cX c #5E6265",
"vX c #5E6366",
"bX c #5F6467",
"nX c #63676A",
"mX c #63686B",
/* pixels */
"[.#X$X&X#X[.K.u.V.[.6.A <.G.U.`.9.= XXh.h.d.h.a.y.v.a.w.8.y.k.p.h.A.A.z.b.u.d.>.o b 7 y i #.Y. X(.V.U.E.(.V.V.v.K.U.8.Q w.y.w.OX",
"(.OX:X>XOXK.F.u.g.R ! z.,X:X-X<X,XG.9 d.h.h.d.g.8.w.>.$.w.a.a.y.a.h.z.h.h.h.h.y.W.q Z.{ :.H.OX[.[.V.E.(.K.V.V.V.V.F.v.+.1.4.1.8.",
"4.;.6.y.Q 8.y.z.u.' s z.<X0XU.a.d.z.'.9.w z.r.w.y.4.+.+.;.8.a.a.l.z.d.d.b.d.d.v.v.& b } `.`.E. X X[.<Xv.F.v.z.d.y.l.F.l.g.} $.>.",
";.+.*.4.) +.e W ! k +XY v.g.w.w.u.h.u.r.w w {.$.4.1.1.g.l.w.a.l.a.l.h.d.h.d.h.d.G.k C t Y (.4.a.8.l.l.l.g.l.b.b.l.y.K.y.g.8.`.c ",
"Q Q W } +.+.4.9.N :.w.a.C g.$.4.u.h.8.;.n | u.f |.w.y.a.g.A.d.0.a.F.z.d.d.z.b.d.@.h <.W Y 0 ;.4.>.1.1.8.a.V.z.d.y.l.K.l.y.F.a.y.",
"8.C 6.w.1.8.a.| F h.a.v.V.t X.w.9.a.w.>.A *.2.9.- w.g.g.z.h.d.i.a.a.b.b.u.d.z.r r  .u.z.n A *.;.$.1.>.y.w.a.d.u.g.K.v.F.F.K.v.a.",
"1.Q d.>.a.F.<Xn v.#Xy.w.U.(.v.a.v.1.;.Q N | T :.g.y.y.l.h.h.A.h.g.V.V.2.W s s k ,X@.6 @.v Z y.t.a.8.8.w.8.l.g.w.4.V.F.V.U.V.K.l.",
"8.w.d.g.g. XY s g.a.y.y.V.l.a.1.y.a.+.Q | 2.u.<.].3.%Xc.b.z.d.d.v.f a i 9 L.XXaXK.9.W = * m V.k.v.g.y.w.g.w.4.;.4.8.y.a.w.E.V.l.",
"8.X.V.l.V.4Xn k F.v.V.w.8.F.V.;.1.l.4.*.9 z.y.U.E.E.r.XXY.F y g h 3 A.XX{.OXOXl.c.y.(.} f D g.b.v.V.h.u.z.g.8.4.1.w.8.8.l.U.U.v.",
"y.+.U.K.[.;.r d.a.a.K.U.l.a.l.8.4.v.y.).!.Y.v.(.[.OXz.1 9 w > %.,X*X*X:X7XOXfXg.p.l.d.l.+.8 w u.U.l.h.h.L.g.g.8.w.w.a.w.g.K.F.F.",
"d.F l.[.&XN 9 ' g.l.a.<X#X`. X>X[.8.`.`.+X!.E. X X`.OX! s X.A.+X:X$X!.h.V.[.#X-X-Xg.h.b.Y.Y h p V.F.r.A.V.F.V.F.g.g.y.8.K.(.K.V.",
"h.*.r.d.r N 1 @.w.w.g.y.;.a.l.4.sXw.#XOX#XE.E. X[.<X} G $ 1.`.'.v.-X[.`.U.F.K.8.4X*Xz.b.z.A < v A.b.l.V.K.U.v.l.l.l.8.y.(.E.F.v.",
"z.r.!.h k <.> ! l.a.y.} +.+.;.8.;.a.OX#X X&X(.F. Xv.} G E.F.[.*XF.V.`.#X[.F.g.a.fXgX| b.9.d.U g A z.l.g.v.a.F.V.l.y.a.g.K.U.l.v.",
"d.9 h A O.,XrXF V.l.8.1.4.w.8.w.h r.4.&X-X-X[.K.l.4.F 1.g.&XQ !.E.K.l.U.#X`.w.K.F.Q A u.9.;.L ; N k E.l.g.a.v.K.V.v.g.g.h.d.d.h.",
"u.h F *.b.*X+XL l.1.w.a.4.w.$.4.T d.w.(.&X&X[.U.,.3 + 8.a.K.O.' OXU.l.l.V.v.v.g./.X.d.8.8.>.| k 1 k ) F.y.g.g.K.U.E.F.v.h.z.d.d.",
"T h | d.l.<XeXw l.8.y.w.1.8.8.OXb.A.8.1.&X4X Xa < < 6.w C ;.T @.OX[.`.F.U.v.a.v.J.) a.a.1.+.0 G.L 3 j G R R M c Q F.l.Y.G.z.u.r ",
"2 >.l.K.;.;.;.g., 4.$.R ;.+.-Xa.4.} 7.3.3.8.b.L r h #XK.l.OXh @.-X XF.V.m.j.u.h.a.R w.4.<.| d.A.w.} 3 k L | P ( ] ( / W @.' ^ B ",
"l.l.v.w.1.1.4.4.G g.e K.E.;.F.F.a.>.} $.4.Y w # :Xz.1.(.E. X$X@.Q OX`.&XT.T.Y h.y.c 8.>.:.| h.<.[.OXy.n k F ( ( I Q ! | W A k *.",
"tXv.y.8.V.l.8.w.{.s d.`.(.`.1.F.g.g.u.9 @.i r.z.u.1.F.V.v.V.V.! X.-X-X XK.OXE.$.X.$.8.V.K.g.A.*X[.[.[.y.>.s ! K M F F A h w z.G.",
"V.g.a.4.E.(.a.w.A.n w ). X[.OXK.V.G.h.*.G.9.Y.6.$.[.<X$XqX XE.#X! 9.>X[.`.#X4XK.d.z.d.V.g.U.V.OX X#X&X4Xv.h.A g h h k | <.b.(.a.",
"V.l.g.y.V.F.F.a.9.! L L `.E.#Xg.K.z.'.! L b.+X*XOXhXeXyXzXE.OXE.h ! @.aXaX,X0X>Xn 9.a.F.K.F.>X#XOX&X-X#Xv.U.2.s 5 A % 6.Y.g.F.l.",
"F.a.l.a.w.F.K.v.b.T 2Xk L ! XX).z.' L n L.'.kXdXeX<X-X[.F.V.[.OXY.k n s k i 3 N 3 } a.(.g.K.-X7X%X#X7XOX4.1.O.L b -.w d.K.D.D.x.",
"v.g.a.y.l.(.V.K.Y l.4X,X  q _ E W 9.| | G.U.nX'.OX[.OX X XV.g.K. Xz.r N % . % F y.$.y.l.F.V.&X<X3X>X0X>X>.y.X.! L u.w g.l.y.b.z.",
"V.a.y.w.l.a.V.V.c &XU.).Q.U 7 o.O.| h h.V.l.).*X#X#XOX-X&XE.v.g.K.v.t L.9.*.:.6.C w.4.l.l.U.tX-X@X7X0X`.8.+.R M B M.S _.D.h.z.d.",
"z.z.h.y.l.V.L.!  XK. X`.`.v.#XG T s F V.F.F.`.>X<X&X-X-XXX).b.U.[.F.f h F b.r.2X5.U h ! | L 2.T K ` T ! ' @.U 7 ' | W F.V.v.g.h.",
"h.z.u.a.a.v.l.! K.V.U. X[.l.E.a.s :.| V.m.iX<X-XeX-X-X&X$X'.L. X`.v.u.h A T F A J K *.F F | ! @.E L L @.T F %.,.9 ! R V.l.V.a.l.",
"a.g.;.V.y.y.4.W 7Xv.V.#XE.a.K.K.*.A #.7.p.&X0X&X-X>X&XOX,X!.K.E.!.2.k 9.:.:.2.F 6 N i i N s ! ! ! T A n k k i C.8X&Xl.g.F.a.V.F.",
"V.V.l.:.w.} W z.a.y.g.g.g.V.K.F.' | 0.p.d >X-XhXtX<X>X X+XL.K.>XA 2XgXtXtXjXiXu.gX:X8Xu.9 1 i r i r N h A > +X1X(.E.K.2 V.g.V.V.",
"F.v.Y.F 3 L.r 9.v.g.a.V.v.F.v.l.w @.| 3.].(. XOXqX-XOX[.K.+X$.sXkXh.Y.`.&XF.l.V.I.F.K.mXiX-X[.K.i r i s i &XU.OX`. XU.g.F.F.v.a.",
"r.r !.h.r.d.! L a.l.l.V.V.K.F.y.h T *.[.(. XU.`.yX,XOX`.g.4Xv.OX!.Y.U.(.K.[.K.F.T.J.(. XOXxXw.D.G.r.z.b.' OX#X&XOX[. X`.@ v.V.8.",
"r.Y.b.a.a.v.L.F 4.v.v.F.V.a.v.8.y W | G K.U.K.U.z.r.e 4Xv.w.l. XU.E.V. XfX#XF.E.#XE.#X=X9X;Xl.g.b.1 1 w XX[.&X[.&X X Xu.O.qX' D ",
"b.A.V.v.a.E. Xk G V.y.v.v.g.a.8.Z { | X.`.K.K.F.h.$XU.v.E.8.a.[.(.E.`.z.).F.(.[.OXOXOX6XwXI.y.E.'.i u Y.!.F._._.4X>X`.h.).= h.).",
"D.m.V.g.V.K.F.M A A.l.w.t.t.4.g.y u n } ) m.M.P.a.j 4.U.U.l.y.a.l.K.[.U.K.V.U.[.<X-X7XtXbXV.v.[.rXA 6 A.v.v.F.U.6XuX`.V.K.e V.a.",
"F.l.a.K.F.F.v.U.N d.6.9.4.8.8.a.-.i A f ) a.z.A.4.X.M `.E.V.K.E.E.-X#XK.K.F.(.U.OX0XtXlXv.K.V.(.+Xh :.h.8.v.v.E./.I.(.V.V.C V.s.",
"V.y.y.l.V.K.g.V.4 v | 9.h.6.O 4.b.r.n C *.F b.L.F.-XOXa.[.l.(.&XOX[.E.K.F.(.[.E.K.`.vXiXV.E.U.(..X9 6.r.1.v.U.K.`.F.K.`.[.D v.D.",
"V.g.a.g.v.v.A.s Z u k h d.u.: a.l.F.l.n n A ' s -X`.(.G U.K.(.`.F.K.V.K.K.&X(.V.[.E.[.F.V. XOXU.o.5 r.r.F.`.F.U.(.OXOXK.E.Q 4.V.",
"v.v.l.l.F.V.5XT U 2.s s N 6.k y.J.c.n.# N n k &.&X(.`.K.v.(.F.U.K.K.U.E.K.[.U.`.(.E.U.a.E.U. XK.q 5 O.b.V.F.U.(.OX[.&X(. XF s A.",
"l.V.V.a.a.b.W n | 2.2.w n n n G.U.E.'.'.s N < pXOX[.[.K.y.(.(.F.V.F.U.E.E.`.#X[.`. XU.U.g.K.-XOXq 9 h.b.y.F.K.[. X#XOXOX'.h h z.",
"V.V.m.t.v.h n y s 9.h.| W s q v r :XY.| i g =.~. X`.(.a.a.g.(.v.E.V.(.v.K.#X X>X#X(.F.g.V.a.y.(.F 3 2Xz.l.F. X<XOX-X-X[.XX' h C.",
"V.a.k.k.1.F * v i k h.} e.K 4 u k k F h k E [ I  X>XU.1.y.w.F.a.[.E.OX#XK.F.`.eX[.`.E.v.g.v.g.v.W % XXA.(.OX<X#X<X=X=X>X,X2.v v ",
"> z.f.P.' T OXl.N.x z.k r.1.| h i n m 7 4 -.! O.-X&Xg.w.;.y.R  X[.`.#Xa.K.(.`.OX{.`.OXE.v.A.u.b.A > #XOX&XOX:X:X9X<X2X*X:X2.A F ",
"T L ~ W T L g.v.B.R.i F N #X2.d.u.d.1 6 r O.:.| R v.w.;.e Y y.OX&Xa.a.y.g.U.V.`.Y.`.U.#XM d.z.6.W > D X.4. X2X:X>X-X>X2X$XL i W ",
"A ! ' W i y.d.u.v.#X!.1 A.#X*.A.K.+.c ' 6 *.@.! R ;.l.} ;.$.+.8.F.+.$.g.v.U.U.E.(.E.`.E.E.n G.L A F > | {.5X2X,X0X4X>X,XXXA w p ",
"! L L G V.v.A.r.g.v.z.n 9 Y !.*X&X: j A.A 2.*.' D 1.l.-Xy.1.D c *.X.$.4.U.E.(.`.E.(.E.K.F.h.N F w | h k N F qX8XeX7X4XyX:Xh 3 y ",
"i T n j v.l.h.d.p.D.6.u.:.$.L dXW L N A 6 N @.| R >.M `.V.l.w.R h.<.9.y.v. X(.E.U.F.g.).h.F W G.{.+X| 3 h k n F uXtXjXA F A ! 3 ",
"> h 4 Z A.J.r.r.D.V.d.*XcXU.1 | L @.' | O.N n | ! r.s  X&X`.g.X.9 6.).E.`.[. XK.g.l.g.L.n n 9.d.h.z.d.'.> i n A H h n ! s '.A.*.",
"w s 4 Z b.M.t.l.g.OXL L.L.U.Y.3 4.v.a.8.9.3 F L y p ` 5X*X&XF.y.@.' G. XU.U.K.(.K.E.G L A h.{.K.z.b.a.8.a.V.h s r h A k k <.@.6 ",
"*.<.; Z w }.k.E.tX0 :.z.A.F.L.z.c E.l.K.D 1.U.a.5 y q q N fX#XU.r.W u.X.`.OX XK.U.) Y r '.6.L.U.A.h.a.8.1.(.!.XX6.9 b 4 z.v.0 ..",
"l. XOX&Xn s ; S.F u.D.D.T.(.E.F.L.s N r U.#XtXlX4XE.v.e h i F ,Xz.w q.k.U. XU.&X<.' 3 +XU.g. XK.F.l.g.a.8.(.U.V.V.b.).1 A O.h.G.",
"OXOXiX-X+Xh.h q u.L.b.U.U.F.K.F.!.O.w Y.F.>.8.y.U.4X4X>X).6 h k w k ' w.K.V.hX} | +.>XK.V.v.F.v.l.V.v.a. XK.U.V.K.U.b.! r.$X,X,X",
"eXw.l.l.lX XXXd.h F n d.!.L.F.`.A r A.*Xy.4.1.w.K.V.V.U.qX!.h.s 7 n <.' ! <.O.~ } OXU.K.K.K.F.K.l.g.8.8.`.U.v.K.F.v.a.X.`.7X>X&X",
"'.A.G.g.l.F.4X X(.b.s n n 9.6 R n {.2XdXa.>.1.(.V.V.g.K. Xz.qXqX^.i r s N L ! k OX`.(.E.(.K.F.V.F.V.g.l.v.[.`.E.K.a.4.U.iX&X4XU.",
"Y.Y.K.K.U.v.T.m.0X'.!.h.6 N n c 2.8XaXd.w.8.+.v.K.a.a.U.(.w.l.F.V.`.K.Y.# k A 5X'.).L.!.E.(.(.U.K.v.l.y.g.w.OX[.V.E.[. X XF.F.(.",
"{.E.(.(. XU.D._.E.`.'.:X2.k 6.A | kXu.u.w.+.;.(.V.v.v.y.w.g.l.F.k.D.%X$.L * '.`.).!.XXXX!.F. XU.K.F.g.y.l.a.g.V.G.n E.E.E.U.V.`.",
"oX(.(.OX X`.[.(.U.U.c.k.$.T 6 7 ! ).6.2.y.>.8.8.V.F.8.g.l.g.v.v.c.J.y.z.*.9 l.E.{.XX).`.E.F.K.E.E.V.V.8.g.v.V.V.N ).[. X#X(.`.(.",
"@X[.[.(. X[.E.K.E.w.c.p.t.X._ 7 ' Y.9.r.w.y.w.;.+.1.1.g.v.V.g.K.F.K.z.9.2.i X.].OX-X X[.(.E.F.K.g.w.l.v.g.V.K.0 +X,X#X#X4X`.E.OX",
"#X`. X[. X(. X(.U.y.F.F.V.h._ * ' A.a.p.7.b.h.d.w.$.a.a.y.v.V.F.F.K.V.8.6.> L ).E.&XOX#XOXF.v.l.V.v.V.K.l.V.(.V.#XE.[. X[.`.U.[.",
"[.(. X X X(.OX(.F.K.F. X&Xu.` q Y `.g.4.;.V.r.h.g.w.l.g.V.v.F.V.F.l.l.a.6.r L L.).K.>X#X-X(.(.G.K.E.U.U.K.K.j V.U.`.E.U.U.E.(.OX",
"[.`. X#XOX XOX[.F.a.F.K.l.r.-.p Y v.g.V.8.y.w.a.g.y.g.l.v.K.K.K.F.V.v.a.6.i k Y.!.).[.E.[.[.Y.).(.F.F.F.V.X F.#X(.&XF.K.U.`.E.#X",
"(.(.[. XF.&X&X XU.F.E.F.g.L T v R v.K.V.a.y.a.(.V.y.a.K.F.K.g.a.F.V.F.a.<.9 | G.!.`.E. X`. XE.XXE.F.F.l.8 OXQ $.U.U.K.F.U.K. X#X",
"OXE.[.(.#X#X#X XF.U.g.K.a.W n 9 Y g.F.V.m.I.t.p.4.8.a.8.4.a.F.U.U.F.F.a.2.9 i XXU.K.E.`.[.V.F.U.K.U.(.e `.4XE.[.#Xw.l.V.F.F.(. X",
"E. X(.(.-X7X>X#XE.v.E.K.G ! T r h 9.G.s.k.m.k.c.v.g.4.w.w.w.U.K.F.K.K.y.r.<.r n V.F.U.E.E.V.F.a.Y.<.% '.-XK.U.E.`.OXG v.F.K.`.[.",
"E.[.#X-X-X-X-X[.U.U.K.K.} k !.!.h Y.v.V.v.v.V.b.v.a.g.y.8.l.g.F.V.K.F.V.d.2.2.k A 6.z.).XX).9.9.6 +X{.,X`.U.F.E.E.[. Xj g.K.[. X",
"`.`.OX-X-X#X[.E.U.F.v.X.M r ' | s A F.v.w.V.V.b.l.v.y.1.y.w.l.K.v.V.V.v.z.d.2.<.s s V V z l s 6.8X'.).!.!.K.K.K.(.(.U.a.a.y.E.`."
};
